<svg xmlns="http://www.w3.org/2000/svg" class="icon icon-tabler icon-tabler-cheers no-default" width="20px" height="20px" viewBox="0 0 800 800" fill="currentColor" stroke="currentColor" stroke-width="10px"><path d="M400 0c-14.583 0-13.203 11.823-13.203 26.406v52.813c0 14.583-1.38 26.406 13.203 26.406s13.2-11.823 13.2-26.406V26.406C413.2 11.823 414.583 0 400 0zM305.31 88.322L252.497 35.51c-10.313-10.313-20.921-18.049-31.231-7.736-10.313 10.311-2.578 16.862 7.734 27.175l52.813 52.813c10.313 10.313 19.297 20.481 29.609 10.169 10.312-10.312 4.2-19.296-6.112-29.609zM577.107 25.055c-10.313-10.313-19.298-2.294-29.609 8.019l-52.813 52.813c-10.313 10.311-18.047 19.013-7.734 29.325s19.297 2.578 29.609-7.734l52.813-52.813c10.313-10.31 18.047-19.296 7.734-29.61zM767.548 716.654c-3.531-14.154-17.862-11.354-32.016-7.818L658.667 728 614.5 559.5c109-41 148.094-156.676 97.333-252l-83.438-161.122c-5.695-10.697-17.939-16.133-29.697-13.211l-198.7 49.542-198.703-49.539c-11.759-2.935-24.001 2.517-29.697 13.211L87.383 304.523c-50.436 94.712-5.579 216.14 97.226 257.78l-42.006 167.815-85.081-20.976c-14.15-3.527-25.937-5.373-29.464 8.775-3.528 14.15 8.314 16.198 22.464 19.726L255.5 788.75c14.173 3.531 25.256 7.184 28.778-6.948 3.528-14.149-7.628-18.025-21.778-21.552l-85.898-20.131 42.013-167.831C289.235 579.653 395.333 533.667 411 444c9.5 71.833 81.024 127.121 172 123.5l44.059 168.421-76.866 19.164c-14.149 3.528-22.763 6.445-19.232 20.595 3.528 14.148 14.055 12.266 28.207 8.737l186.314-43.918c14.15-3.527 25.596-9.694 22.066-23.845zM208.056 536.605c-78.223-14.771-134.889-116.771-98.195-202.573L394.5 408.5c-12.376 87.638-94.789 152.029-186.444 128.105zm-82.463-235.852l72.574-138.919 197.3 51.683-5.542 156.752m35.832 6.995l.646-167.633 180.038-44.125L682 313.5l-256.243 63.764zm165.306 160.019C507.5 556 439.451 495.979 426.757 410.919l267.588-69.497C723.247 421.84 682.5 511.5 591.063 537.283z"/></svg>