<?xml version="1.0" standalone="no"?><!DOCTYPE svg PUBLIC "-//W3C//DTD SVG 1.1//EN" "http://www.w3.org/Graphics/SVG/1.1/DTD/svg11.dtd"><svg t="1746498603987" class="icon" viewBox="0 0 1024 1024" version="1.1" xmlns="http://www.w3.org/2000/svg" p-id="3852" xmlns:xlink="http://www.w3.org/1999/xlink" width="200" height="200"><path d="M170.667 810.667h682.666a42.667 42.667 0 0 1 0 85.333H170.667a42.667 42.667 0 0 1 0-85.333z m0-204.502a21.333 21.333 0 0 1 6.229-15.061l448-448a21.333 21.333 0 0 1 30.208 0l97.792 97.792a21.333 21.333 0 0 1 0 30.208l-448 448a21.333 21.333 0 0 1-15.061 6.23H181.333a10.667 10.667 0 0 1-10.666-10.667V606.165zM640 218.496L234.667 623.829v37.504h37.504L677.504 256 640 218.496z" p-id="3853"></path></svg>