<?xml version="1.0" standalone="no"?><!DOCTYPE svg PUBLIC "-//W3C//DTD SVG 1.1//EN" "http://www.w3.org/Graphics/SVG/1.1/DTD/svg11.dtd"><svg t="1746495917232" class="icon" viewBox="0 0 1070 1024" version="1.1" xmlns="http://www.w3.org/2000/svg" p-id="2729" xmlns:xlink="http://www.w3.org/1999/xlink" width="208.984375" height="200"><path d="M779.729455 791.272727l-86.43491-186.181818h-316.043636l-86.434909 186.181818H349.090909a23.272727 23.272727 0 1 1 0 46.545455h-139.636364a23.272727 23.272727 0 1 1 0-46.545455h32.628364a23.179636 23.179636 0 0 1 2.187636-10.286545l269.870546-581.352727a23.272727 23.272727 0 0 1 42.263273 0l270.196363 582.050909a23.179636 23.179636 0 0 1 2.187637 9.588363h32.302545a23.272727 23.272727 0 1 1 0 46.545455h-139.636364a23.272727 23.272727 0 1 1 0-46.545455h58.27491zM398.894545 558.545455h272.849455L535.272727 264.704 398.894545 558.545455z" fill="#666666" p-id="2730"></path></svg>