<?xml version="1.0" standalone="no"?><!DOCTYPE svg PUBLIC "-//W3C//DTD SVG 1.1//EN" "http://www.w3.org/Graphics/SVG/1.1/DTD/svg11.dtd"><svg t="1746549290469" class="icon" viewBox="0 0 1024 1024" version="1.1" xmlns="http://www.w3.org/2000/svg" p-id="3608" xmlns:xlink="http://www.w3.org/1999/xlink" width="200" height="200"><path d="M676.64 72.373333a21.333333 21.333333 0 0 0-28.426667 24.96c7.733333 32 17.333333 77.973333 17.333334 108.64a407.36 407.36 0 0 1-585.173334 366.4 21.333333 21.333333 0 0 0-30.293333 23.04 469.333333 469.333333 0 0 0 485.333333 385.333334c243.84-11.84 439.413333-212.16 445.76-456.213334a469.333333 469.333333 0 0 0-304.533333-452.16zM512 906.666667a395.306667 395.306667 0 0 1-357.333333-226.4 2.186667 2.186667 0 0 1 2.453333-3.04 480 480 0 0 0 100.96 10.666666 482.506667 482.506667 0 0 0 481.92-481.92v-11.68a2.186667 2.186667 0 0 1 3.466667-1.813333 395.52 395.52 0 0 1 81.44 78.986667A390.826667 390.826667 0 0 1 906.666667 512a395.146667 395.146667 0 0 1-394.666667 394.666667zM202.293333 262.72a8.96 8.96 0 0 0 2.88 0.426667 75.946667 75.946667 0 0 1 75.733334 75.733333 7.626667 7.626667 0 0 0 0.48 2.88 11.52 11.52 0 0 0 22.186666 0 8.746667 8.746667 0 0 0 0.426667-2.88 76 76 0 0 1 75.733333-75.733333 8.746667 8.746667 0 0 0 2.88-0.426667 11.573333 11.573333 0 0 0 0-22.24 8.746667 8.746667 0 0 0-2.88-0.426667A75.946667 75.946667 0 0 1 304 164.32a8.746667 8.746667 0 0 0-0.426667-2.88 11.52 11.52 0 0 0-22.186666 0 7.626667 7.626667 0 0 0-0.48 2.88A75.893333 75.893333 0 0 1 205.386667 240a8.96 8.96 0 0 0-2.88 0.426667 11.573333 11.573333 0 0 0 0 22.24z" p-id="3609" fill="#e6e6e6"></path></svg>