<?xml version="1.0" standalone="no"?><!DOCTYPE svg PUBLIC "-//W3C//DTD SVG 1.1//EN" "http://www.w3.org/Graphics/SVG/1.1/DTD/svg11.dtd"><svg t="1746549266794" class="icon" viewBox="0 0 1024 1024" version="1.1" xmlns="http://www.w3.org/2000/svg" p-id="2634" xmlns:xlink="http://www.w3.org/1999/xlink" width="200" height="200"><path d="M512 768c-141.376 0-256-114.624-256-256s114.624-256 256-256 256 114.624 256 256-114.624 256-256 256z m0-85.333333a170.666667 170.666667 0 1 0 0-341.333334 170.666667 170.666667 0 0 0 0 341.333334zM469.333333 85.333333a42.666667 42.666667 0 1 1 85.333334 0v85.333334a42.666667 42.666667 0 1 1-85.333334 0V85.333333z m0 768a42.666667 42.666667 0 1 1 85.333334 0v85.333334a42.666667 42.666667 0 1 1-85.333334 0v-85.333334zM85.333333 554.666667a42.666667 42.666667 0 1 1 0-85.333334h85.333334a42.666667 42.666667 0 1 1 0 85.333334H85.333333z m768 0a42.666667 42.666667 0 1 1 0-85.333334h85.333334a42.666667 42.666667 0 1 1 0 85.333334h-85.333334zM161.834667 222.165333a42.666667 42.666667 0 0 1 60.330666-60.330666l64 64a42.666667 42.666667 0 0 1-60.330666 60.330666l-64-64z m576 576a42.666667 42.666667 0 0 1 60.330666-60.330666l64 64a42.666667 42.666667 0 0 1-60.330666 60.330666l-64-64z m-515.669334 64a42.666667 42.666667 0 0 1-60.330666-60.330666l64-64a42.666667 42.666667 0 0 1 60.330666 60.330666l-64 64z m576-576a42.666667 42.666667 0 0 1-60.330666-60.330666l64-64a42.666667 42.666667 0 0 1 60.330666 60.330666l-64 64z" fill="#000000" p-id="2635"></path></svg>